<mxfile host="app.diagrams.net" modified="2024-02-17T16:15:08.730Z" agent="Mozilla/5.0 (Windows NT 10.0; Win64; x64) AppleWebKit/537.36 (KHTML, like Gecko) Chrome/121.0.0.0 Safari/537.36" etag="Ia-qQnLB6fhpFML6YVW0" version="23.1.5" type="github">
  <diagram name="Seite-1" id="xnRWR5NUrVfUTf_g9c-T">
    <mxGraphModel dx="1534" dy="831" grid="1" gridSize="10" guides="1" tooltips="1" connect="1" arrows="1" fold="1" page="1" pageScale="1" pageWidth="827" pageHeight="1169" math="0" shadow="0">
      <root>
        <mxCell id="0" />
        <mxCell id="1" parent="0" />
        <mxCell id="-e80-26a6NBTzjFX_eVu-1" value="" style="rounded=0;whiteSpace=wrap;html=1;" vertex="1" parent="1">
          <mxGeometry x="80" y="200" width="520" height="280" as="geometry" />
        </mxCell>
        <mxCell id="-e80-26a6NBTzjFX_eVu-2" value="Party" style="rounded=0;whiteSpace=wrap;html=1;" vertex="1" parent="1">
          <mxGeometry x="80" y="200" width="120" height="30" as="geometry" />
        </mxCell>
        <mxCell id="-e80-26a6NBTzjFX_eVu-7" value="Polizei/ Ordnungsamt" style="shape=umlActor;verticalLabelPosition=bottom;verticalAlign=top;html=1;" vertex="1" parent="1">
          <mxGeometry x="325" y="70" width="30" height="60" as="geometry" />
        </mxCell>
        <mxCell id="-e80-26a6NBTzjFX_eVu-13" value="Gastgeber" style="shape=umlActor;verticalLabelPosition=bottom;verticalAlign=top;html=1;" vertex="1" parent="1">
          <mxGeometry x="750" y="280" width="30" height="60" as="geometry" />
        </mxCell>
        <mxCell id="-e80-26a6NBTzjFX_eVu-14" value="GÃ¤ste" style="shape=umlActor;verticalLabelPosition=bottom;verticalAlign=top;html=1;" vertex="1" parent="1">
          <mxGeometry x="325" y="510" width="30" height="60" as="geometry" />
        </mxCell>
      </root>
    </mxGraphModel>
  </diagram>
</mxfile>
